<?xml version="1.0" encoding="utf-8"?>
<svg version="1.1" xmlns:xlink="http://www.w3.org/1999/xlink" width="31px" height="27px" xmlns="http://www.w3.org/2000/svg">
  <defs>
    <mask fill="white" id="clip33">
      <path d="M 12.2143229166667 12.2749399038462  C 13.1238715277778 11.3608774038462  14.2190972222222 10.9038461538462  15.5 10.9038461538462  C 16.7809027777778 10.9038461538462  17.8761284722222 11.3608774038462  18.7856770833333 12.2749399038462  C 19.6952256944444 13.1890024038462  20.15 14.2896634615385  20.15 15.5769230769231  C 20.15 16.8641826923077  19.6952256944444 17.96484375  18.7856770833333 18.87890625  C 17.8761284722222 19.79296875  16.7809027777778 20.25  15.5 20.25  C 14.2190972222222 20.25  13.1238715277778 19.79296875  12.2143229166667 18.87890625  C 11.3047743055556 17.96484375  10.85 16.8641826923077  10.85 15.5769230769231  C 10.85 14.2896634615385  11.3047743055556 13.1890024038462  12.2143229166667 12.2749399038462  Z M 23.25 4.15384615384615  L 26.8666666666667 4.15384615384615  C 28.0076388888889 4.15384615384615  28.9817708333333 4.55949519230769  29.7890625 5.37079326923077  C 30.5963541666667 6.18209134615385  31 7.16105769230769  31 8.30769230769231  L 31 22.8461538461538  C 31 23.9927884615385  30.5963541666667 24.9717548076923  29.7890625 25.7830528846154  C 28.9817708333333 26.5943509615385  28.0076388888889 27  26.8666666666667 27  L 4.13333333333333 27  C 2.99236111111111 27  2.01822916666667 26.5943509615385  1.2109375 25.7830528846154  C 0.403645833333333 24.9717548076923  0 23.9927884615385  0 22.8461538461538  L 0 8.30769230769231  C 0 7.16105769230769  0.403645833333333 6.18209134615385  1.2109375 5.37079326923077  C 2.01822916666667 4.55949519230769  2.99236111111111 4.15384615384615  4.13333333333333 4.15384615384615  L 7.75 4.15384615384615  L 8.5734375 1.94711538461538  C 8.77795138888889 1.41706730769231  9.15199652777778 0.960036057692306  9.69557291666667 0.576021634615384  C 10.2391493055556 0.192007211538464  10.7961805555556 0  11.3666666666667 0  L 19.6333333333333 0  C 20.2038194444444 0  20.7608506944444 0.192007211538464  21.3044270833333 0.576021634615384  C 21.8480034722222 0.960036057692306  22.2220486111111 1.41706730769231  22.4265625 1.94711538461538  L 23.25 4.15384615384615  Z M 10.38984375 20.7124399038462  C 11.8052951388889 22.1349158653846  13.5086805555556 22.8461538461538  15.5 22.8461538461538  C 17.4913194444444 22.8461538461538  19.1947048611111 22.1349158653846  20.61015625 20.7124399038462  C 22.0256076388889 19.2899639423077  22.7333333333333 17.578125  22.7333333333333 15.5769230769231  C 22.7333333333333 13.5757211538462  22.0256076388889 11.8638822115385  20.61015625 10.44140625  C 19.1947048611111 9.01893028846154  17.4913194444444 8.30769230769231  15.5 8.30769230769231  C 13.5086805555556 8.30769230769231  11.8052951388889 9.01893028846154  10.38984375 10.44140625  C 8.97439236111111 11.8638822115385  8.26666666666667 13.5757211538462  8.26666666666667 15.5769230769231  C 8.26666666666667 17.578125  8.97439236111111 19.2899639423077  10.38984375 20.7124399038462  Z " fill-rule="evenodd" />
    </mask>
  </defs>
  <g transform="matrix(1 0 0 1 -875 -190 )">
    <path d="M 12.2143229166667 12.2749399038462  C 13.1238715277778 11.3608774038462  14.2190972222222 10.9038461538462  15.5 10.9038461538462  C 16.7809027777778 10.9038461538462  17.8761284722222 11.3608774038462  18.7856770833333 12.2749399038462  C 19.6952256944444 13.1890024038462  20.15 14.2896634615385  20.15 15.5769230769231  C 20.15 16.8641826923077  19.6952256944444 17.96484375  18.7856770833333 18.87890625  C 17.8761284722222 19.79296875  16.7809027777778 20.25  15.5 20.25  C 14.2190972222222 20.25  13.1238715277778 19.79296875  12.2143229166667 18.87890625  C 11.3047743055556 17.96484375  10.85 16.8641826923077  10.85 15.5769230769231  C 10.85 14.2896634615385  11.3047743055556 13.1890024038462  12.2143229166667 12.2749399038462  Z M 23.25 4.15384615384615  L 26.8666666666667 4.15384615384615  C 28.0076388888889 4.15384615384615  28.9817708333333 4.55949519230769  29.7890625 5.37079326923077  C 30.5963541666667 6.18209134615385  31 7.16105769230769  31 8.30769230769231  L 31 22.8461538461538  C 31 23.9927884615385  30.5963541666667 24.9717548076923  29.7890625 25.7830528846154  C 28.9817708333333 26.5943509615385  28.0076388888889 27  26.8666666666667 27  L 4.13333333333333 27  C 2.99236111111111 27  2.01822916666667 26.5943509615385  1.2109375 25.7830528846154  C 0.403645833333333 24.9717548076923  0 23.9927884615385  0 22.8461538461538  L 0 8.30769230769231  C 0 7.16105769230769  0.403645833333333 6.18209134615385  1.2109375 5.37079326923077  C 2.01822916666667 4.55949519230769  2.99236111111111 4.15384615384615  4.13333333333333 4.15384615384615  L 7.75 4.15384615384615  L 8.5734375 1.94711538461538  C 8.77795138888889 1.41706730769231  9.15199652777778 0.960036057692306  9.69557291666667 0.576021634615384  C 10.2391493055556 0.192007211538464  10.7961805555556 0  11.3666666666667 0  L 19.6333333333333 0  C 20.2038194444444 0  20.7608506944444 0.192007211538464  21.3044270833333 0.576021634615384  C 21.8480034722222 0.960036057692306  22.2220486111111 1.41706730769231  22.4265625 1.94711538461538  L 23.25 4.15384615384615  Z M 10.38984375 20.7124399038462  C 11.8052951388889 22.1349158653846  13.5086805555556 22.8461538461538  15.5 22.8461538461538  C 17.4913194444444 22.8461538461538  19.1947048611111 22.1349158653846  20.61015625 20.7124399038462  C 22.0256076388889 19.2899639423077  22.7333333333333 17.578125  22.7333333333333 15.5769230769231  C 22.7333333333333 13.5757211538462  22.0256076388889 11.8638822115385  20.61015625 10.44140625  C 19.1947048611111 9.01893028846154  17.4913194444444 8.30769230769231  15.5 8.30769230769231  C 13.5086805555556 8.30769230769231  11.8052951388889 9.01893028846154  10.38984375 10.44140625  C 8.97439236111111 11.8638822115385  8.26666666666667 13.5757211538462  8.26666666666667 15.5769230769231  C 8.26666666666667 17.578125  8.97439236111111 19.2899639423077  10.38984375 20.7124399038462  Z " fill-rule="nonzero" fill="#ffffff" stroke="none" transform="matrix(1 0 0 1 875 190 )" />
    <path d="M 12.2143229166667 12.2749399038462  C 13.1238715277778 11.3608774038462  14.2190972222222 10.9038461538462  15.5 10.9038461538462  C 16.7809027777778 10.9038461538462  17.8761284722222 11.3608774038462  18.7856770833333 12.2749399038462  C 19.6952256944444 13.1890024038462  20.15 14.2896634615385  20.15 15.5769230769231  C 20.15 16.8641826923077  19.6952256944444 17.96484375  18.7856770833333 18.87890625  C 17.8761284722222 19.79296875  16.7809027777778 20.25  15.5 20.25  C 14.2190972222222 20.25  13.1238715277778 19.79296875  12.2143229166667 18.87890625  C 11.3047743055556 17.96484375  10.85 16.8641826923077  10.85 15.5769230769231  C 10.85 14.2896634615385  11.3047743055556 13.1890024038462  12.2143229166667 12.2749399038462  Z " stroke-width="4" stroke="#aaaaaa" fill="none" transform="matrix(1 0 0 1 875 190 )" mask="url(#clip33)" />
    <path d="M 23.25 4.15384615384615  L 26.8666666666667 4.15384615384615  C 28.0076388888889 4.15384615384615  28.9817708333333 4.55949519230769  29.7890625 5.37079326923077  C 30.5963541666667 6.18209134615385  31 7.16105769230769  31 8.30769230769231  L 31 22.8461538461538  C 31 23.9927884615385  30.5963541666667 24.9717548076923  29.7890625 25.7830528846154  C 28.9817708333333 26.5943509615385  28.0076388888889 27  26.8666666666667 27  L 4.13333333333333 27  C 2.99236111111111 27  2.01822916666667 26.5943509615385  1.2109375 25.7830528846154  C 0.403645833333333 24.9717548076923  0 23.9927884615385  0 22.8461538461538  L 0 8.30769230769231  C 0 7.16105769230769  0.403645833333333 6.18209134615385  1.2109375 5.37079326923077  C 2.01822916666667 4.55949519230769  2.99236111111111 4.15384615384615  4.13333333333333 4.15384615384615  L 7.75 4.15384615384615  L 8.5734375 1.94711538461538  C 8.77795138888889 1.41706730769231  9.15199652777778 0.960036057692306  9.69557291666667 0.576021634615384  C 10.2391493055556 0.192007211538464  10.7961805555556 0  11.3666666666667 0  L 19.6333333333333 0  C 20.2038194444444 0  20.7608506944444 0.192007211538464  21.3044270833333 0.576021634615384  C 21.8480034722222 0.960036057692306  22.2220486111111 1.41706730769231  22.4265625 1.94711538461538  L 23.25 4.15384615384615  Z " stroke-width="4" stroke="#aaaaaa" fill="none" transform="matrix(1 0 0 1 875 190 )" mask="url(#clip33)" />
    <path d="M 10.38984375 20.7124399038462  C 11.8052951388889 22.1349158653846  13.5086805555556 22.8461538461538  15.5 22.8461538461538  C 17.4913194444444 22.8461538461538  19.1947048611111 22.1349158653846  20.61015625 20.7124399038462  C 22.0256076388889 19.2899639423077  22.7333333333333 17.578125  22.7333333333333 15.5769230769231  C 22.7333333333333 13.5757211538462  22.0256076388889 11.8638822115385  20.61015625 10.44140625  C 19.1947048611111 9.01893028846154  17.4913194444444 8.30769230769231  15.5 8.30769230769231  C 13.5086805555556 8.30769230769231  11.8052951388889 9.01893028846154  10.38984375 10.44140625  C 8.97439236111111 11.8638822115385  8.26666666666667 13.5757211538462  8.26666666666667 15.5769230769231  C 8.26666666666667 17.578125  8.97439236111111 19.2899639423077  10.38984375 20.7124399038462  Z " stroke-width="4" stroke="#aaaaaa" fill="none" transform="matrix(1 0 0 1 875 190 )" mask="url(#clip33)" />
  </g>
</svg>