<?xml version="1.0" encoding="utf-8"?>
<svg version="1.1" xmlns:xlink="http://www.w3.org/1999/xlink" width="17px" height="18px" xmlns="http://www.w3.org/2000/svg">
  <g transform="matrix(1 0 0 1 -951 -267 )">
    <path d="M 16.6181640625 10.611328125  C 16.6882595486111 10.685546875  16.7233072916667 10.7734375  16.7233072916667 10.875  C 16.7233072916667 10.9140625  16.7196180555556 10.94140625  16.7122395833333 10.95703125  C 16.2400173611111 13.05078125  15.2513020833333 14.748046875  13.74609375 16.048828125  C 12.2408854166667 17.349609375  10.4774305555556 18  8.45572916666667 18  C 7.37847222222222 18  6.33626302083333 17.78515625  5.3291015625 17.35546875  C 4.32194010416667 16.92578125  3.42361111111111 16.3125  2.63411458333333 15.515625  L 1.20638020833333 17.02734375  C 1.06618923611111 17.17578125  0.900173611111111 17.25  0.708333333333333 17.25  C 0.516493055555556 17.25  0.350477430555556 17.17578125  0.210286458333333 17.02734375  C 0.0700954861111111 16.87890625  0 16.703125  0 16.5  L 0 11.25  C 0 11.046875  0.0700954861111111 10.87109375  0.210286458333333 10.72265625  C 0.350477430555556 10.57421875  0.516493055555556 10.5  0.708333333333333 10.5  L 5.66666666666667 10.5  C 5.85850694444444 10.5  6.02452256944444 10.57421875  6.16471354166667 10.72265625  C 6.30490451388889 10.87109375  6.375 11.046875  6.375 11.25  C 6.375 11.453125  6.30490451388889 11.62890625  6.16471354166667 11.77734375  L 4.6484375 13.3828125  C 5.17230902777778 13.8984375  5.76627604166667 14.296875  6.43033854166667 14.578125  C 7.09440104166667 14.859375  7.78428819444444 15  8.5 15  C 9.48871527777778 15  10.4110243055556 14.74609375  11.2669270833333 14.23828125  C 12.1228298611111 13.73046875  12.8090277777778 13.03125  13.3255208333333 12.140625  C 13.4066840277778 12.0078125  13.6022135416667 11.55078125  13.912109375 10.76953125  C 13.9711371527778 10.58984375  14.0818142361111 10.5  14.244140625 10.5  L 16.369140625 10.5  C 16.4650607638889 10.5  16.5480685763889 10.537109375  16.6181640625 10.611328125  Z M 16.7897135416667 0.972656250000001  C 16.9299045138889 1.12109375  17 1.296875  17 1.5  L 17 6.75  C 17 6.953125  16.9299045138889 7.12890625  16.7897135416667 7.27734375  C 16.6495225694444 7.42578125  16.4835069444444 7.5  16.2916666666667 7.5  L 11.3333333333333 7.5  C 11.1414930555556 7.5  10.9754774305556 7.42578125  10.8352864583333 7.27734375  C 10.6950954861111 7.12890625  10.625 6.953125  10.625 6.75  C 10.625 6.546875  10.6950954861111 6.37109375  10.8352864583333 6.22265625  L 12.3626302083333 4.60546875  C 11.2706163194444 3.53515625  9.98307291666667 3  8.5 3  C 7.51128472222222 3  6.58897569444444 3.25390625  5.73307291666667 3.76171875  C 4.87717013888889 4.26953125  4.19097222222222 4.96875  3.67447916666667 5.859375  C 3.59331597222222 5.9921875  3.39778645833333 6.44921875  3.087890625 7.23046875  C 3.02886284722222 7.41015625  2.91818576388889 7.5  2.755859375 7.5  L 0.553385416666667 7.5  C 0.457465277777778 7.5  0.374457465277778 7.462890625  0.304361979166667 7.388671875  C 0.234266493055556 7.314453125  0.19921875 7.2265625  0.19921875 7.125  L 0.19921875 7.04296875  C 0.678819444444445 4.94921875  1.67491319444444 3.251953125  3.1875 1.951171875  C 4.70008680555556 0.650390625  6.47092013888889 0  8.5 0  C 9.57725694444444 0  10.625 0.216796875000001  11.6432291666667 0.650390625  C 12.6614583333333 1.083984375  13.5653211805556 1.6953125  14.3548177083333 2.484375  L 15.7936197916667 0.972656250000001  C 15.9338107638889 0.824218749999998  16.0998263888889 0.749999999999999  16.2916666666667 0.749999999999999  C 16.4835069444444 0.749999999999999  16.6495225694444 0.824218749999998  16.7897135416667 0.972656250000001  Z " fill-rule="nonzero" fill="#315efb" stroke="none" transform="matrix(1 0 0 1 951 267 )" />
  </g>
</svg>